<?xml version="1.0" encoding="UTF-8" standalone="no"?>
<!-- Created with Inkscape (http://www.inkscape.org/) -->

<svg
   xmlns:dc="http://purl.org/dc/elements/1.1/"
   xmlns:cc="http://creativecommons.org/ns#"
   xmlns:rdf="http://www.w3.org/1999/02/22-rdf-syntax-ns#"
   xmlns:svg="http://www.w3.org/2000/svg"
   xmlns="http://www.w3.org/2000/svg"
   xmlns:sodipodi="http://sodipodi.sourceforge.net/DTD/sodipodi-0.dtd"
   xmlns:inkscape="http://www.inkscape.org/namespaces/inkscape"
   id="svg2"
   version="1.1"
   inkscape:version="0.92.4 (5da689c313, 2019-01-14)"
   width="1000mm"
   height="300mm"
   xml:space="preserve"
   sodipodi:docname="logo2_pfad.svg"
   inkscape:export-filename="/home/mose/ownCloud/fln/logo2.png"
   inkscape:export-xdpi="72"
   inkscape:export-ydpi="72"><metadata
     id="metadata8"><rdf:RDF><cc:Work
         rdf:about=""><dc:format>image/svg+xml</dc:format><dc:type
           rdf:resource="http://purl.org/dc/dcmitype/StillImage" /><dc:title></dc:title></cc:Work></rdf:RDF></metadata><defs
     id="defs6"><clipPath
       clipPathUnits="userSpaceOnUse"
       id="clipPath16"><path
         d="M 0,841.89 H 595.276 V 0 H 0 Z"
         id="path18"
         inkscape:connector-curvature="0" /></clipPath></defs><sodipodi:namedview
     pagecolor="#ffffff"
     bordercolor="#666666"
     borderopacity="1"
     objecttolerance="10"
     gridtolerance="10"
     guidetolerance="10"
     inkscape:pageopacity="0"
     inkscape:pageshadow="2"
     inkscape:window-width="1920"
     inkscape:window-height="1001"
     id="namedview4"
     showgrid="false"
     inkscape:zoom="0.25"
     inkscape:cx="1872.3521"
     inkscape:cy="297.63596"
     inkscape:window-x="-9"
     inkscape:window-y="-9"
     inkscape:window-maximized="1"
     inkscape:current-layer="layer1"
     inkscape:document-units="mm"
     units="mm"
     showguides="false"
     inkscape:guide-bbox="true"
     inkscape:measure-start="672.221,1046.06"
     inkscape:measure-end="672.221,1142.09"
     inkscape:snap-page="true"
     inkscape:snap-bbox="true"
     inkscape:object-paths="true"
     inkscape:bbox-nodes="true"
     width="1000mm"><sodipodi:guide
       position="1967.95,188.97638"
       orientation="0,1"
       id="guide943"
       inkscape:locked="false"
       inkscape:label=""
       inkscape:color="rgb(0,0,255)" /><inkscape:grid
       type="xygrid"
       id="grid947" /><sodipodi:guide
       position="0,94.488189"
       orientation="0,1"
       id="guide949"
       inkscape:locked="false"
       inkscape:label=""
       inkscape:color="rgb(0,0,255)" /><sodipodi:guide
       position="1690.3835,944.88189"
       orientation="0,1"
       id="guide1080"
       inkscape:locked="false" /><sodipodi:guide
       position="188.97638,765.85135"
       orientation="1,0"
       id="guide1082"
       inkscape:locked="false" /><sodipodi:guide
       position="1133.8583,826.557"
       orientation="1,0"
       id="guide1092"
       inkscape:locked="false"
       inkscape:label=""
       inkscape:color="rgb(0,0,255)" /><sodipodi:guide
       position="0,1039.3701"
       orientation="0,1"
       id="guide1094"
       inkscape:locked="false"
       inkscape:label=""
       inkscape:color="rgb(0,0,255)" /><sodipodi:guide
       position="1322.8346,576.189"
       orientation="1,0"
       id="guide1096"
       inkscape:locked="false"
       inkscape:label=""
       inkscape:color="rgb(0,0,255)" /><sodipodi:guide
       position="3590.5512,0"
       orientation="1,0"
       id="guide866"
       inkscape:locked="false"
       inkscape:label=""
       inkscape:color="rgb(0,0,255)" /></sodipodi:namedview><g
     inkscape:groupmode="layer"
     id="layer1"
     inkscape:label="Logoneu"
     style="display:inline"
     transform="translate(0,1.2031496e-4)"><g
   style="display:inline;stroke-width:1.00016582"
   transform="matrix(20.87881,0,0,-20.885736,118.3003,1101.603)"
   id="g933"><path
     d="m 25.932266,46.401557 17.122133,-10.075733 2.048,1.4144 c -4.020267,6.2912 -11.056,10.472533 -19.082667,10.48 -8.032,0.0032 -15.089066,-4.194133 -19.1093331,-10.5056 l 1.9722667,-1.217067 5.2640004,3.051734 3.698133,-2.088534 c -0.119467,-0.3712 -0.187733,-0.749866 -0.1888,-1.1424 -0.0032,-2.914133 3.460267,-5.275733 7.719467,-5.272533 4.266666,-0.0053 7.726933,2.3552 7.733333,5.264 0,2.910933 -3.460267,5.2736 -7.729067,5.277867 -0.946133,-0.0021 -1.857066,-0.125867 -2.6944,-0.3424 l -2.6912,1.704533 z"
     style="fill:#2e3192;fill-opacity:1;fill-rule:nonzero;stroke:none;stroke-width:1.06684363"
     id="path927"
     inkscape:connector-curvature="0" /><path
     d="m 25.037332,5.7284907 -4.625066,2.6037333 -0.1856,5.284267 c 0.2208,0.0768 0.436266,0.1696 0.648533,0.283733 2.5184,1.457067 2.833067,5.634133 0.704,9.332267 -2.1344,3.6928 -5.898667,5.5072 -8.421333,4.053333 -2.520534,-1.458133 -2.830934,-5.6288 -0.7168,-9.320533 0.394666,-0.666667 0.8288,-1.259734 1.301333,-1.7984 l -0.1696,-3.973334 -5.5584001,3.140267 0.094933,19.7824 -2.0117334,1.2096 c -1.7258666,-3.1904 -2.7104,-6.842667 -2.7125333,-10.7264 C 3.3807989,13.415957 13.011732,3.4756907 25.078932,2.981824 Z"
     style="fill:#2e3192;fill-opacity:1;fill-rule:nonzero;stroke:none;stroke-width:1.06684363"
     id="path929"
     inkscape:connector-curvature="0" /><path
     d="m 45.914132,36.366357 -2.3616,-1.661866 -0.0021,-5.858134 -3.809067,-2.267733 c -0.2496,0.274133 -0.5408,0.510933 -0.8704,0.7008 -2.5088,1.4528 -6.2976,-0.360533 -8.430933,-4.0544 -2.135467,-3.691733 -1.812267,-7.8688 0.6976,-9.328 2.526933,-1.457067 6.2976,0.360533 8.430933,4.055467 0.482134,0.832 0.827734,1.681066 1.063467,2.5216 l 2.914133,1.653333 v -6.816 l -16.893866,-9.6597333 0.0064,-2.672 c 12.1888,0.3392 21.976533,10.3221333 21.981866,22.5984003 0.0075,3.909333 -0.984533,7.5808 -2.7264,10.788266"
     style="fill:#ec008c;fill-opacity:1;fill-rule:nonzero;stroke:none;stroke-width:1.06684363"
     id="path931"
     inkscape:connector-curvature="0" /></g><g
   aria-label="FabLab"
   style="font-style:normal;font-variant:normal;font-weight:bold;font-stretch:normal;font-size:796.61810303px;line-height:100%;font-family:'Liberation Sans';-inkscape-font-specification:'Liberation Sans Bold';letter-spacing:0px;word-spacing:0px;display:inline;fill:#2e3192;fill-opacity:1;stroke:none;stroke-width:1px;stroke-linecap:butt;stroke-linejoin:miter;stroke-opacity:1"
   id="text844"><path
     d="m 1461.3092,426.25023 h 143.1423 v 85.57421 h -143.1423 z m 0,-233.38421 h 178.1499 l 3.8898,93.35368 h -182.0397 z m -31.8958,0 V 745.20865 H 1322.8346 V 192.86602 Z"
     style="font-style:normal;font-variant:normal;font-weight:bold;font-stretch:normal;font-size:796.61810303px;font-family:'Aero Matics Stencil';-inkscape-font-specification:'Aero Matics Stencil Bold';fill:#2e3192;fill-opacity:1;stroke-width:1px"
     id="path4609" /><path
     d="m 1902.0164,738.59609 q -33.4518,6.61256 -64.9586,6.61256 -140.8085,0 -140.8085,-120.58185 v -38.89736 q 0,-120.58185 140.8085,-120.58185 l 64.9586,2.33385 v 85.57421 l -45.5099,-2.33385 q -53.6784,0 -53.6784,35.00764 v 31.11789 q 0,35.00763 54.0673,35.00763 7.0016,0.77795 15.17,0.77795 10.8913,0 29.951,-1.94487 z m 27.6171,-296.78692 q 0,-35.00763 -55.6232,-35.00763 -59.902,0 -134.9739,8.16845 l -3.8897,-96.46547 q 35.0076,-10.11332 87.908,-10.11332 39.2864,0 90.2419,5.05666 122.9157,12.05818 122.9157,155.58947 v 280.06105 l -106.5788,-3.88973 z"
     style="font-style:normal;font-variant:normal;font-weight:bold;font-stretch:normal;font-size:796.61810303px;font-family:'Aero Matics Stencil';-inkscape-font-specification:'Aero Matics Stencil Bold';fill:#2e3192;fill-opacity:1;stroke-width:1px"
     id="path4611" /><path
     d="m 2289.0452,309.55812 q 140.8085,0 140.8085,120.58184 V 624.6268 q 0,120.58185 -140.8085,120.58185 -30.7289,0 -63.4027,-6.22358 v -88.686 q 18.2817,2.33384 29.173,2.33384 7.3905,0 14.392,-0.77795 54.0674,0 54.0674,-35.00763 V 437.91944 q 0,-35.00764 -53.6784,-35.00764 l -43.1761,2.33385 0.389,-93.35369 z m -92.5758,435.65053 -106.5787,3.88973 v -560.1221 l 106.5787,3.88974 z"
     style="font-style:normal;font-variant:normal;font-weight:bold;font-stretch:normal;font-size:796.61810303px;font-family:'Aero Matics Stencil';-inkscape-font-specification:'Aero Matics Stencil Bold';fill:#2e3192;fill-opacity:1;stroke-width:1px"
     id="path4613" /><path
     d="m 2618.117,651.85496 h 185.9294 l -3.8897,93.35369 H 2618.117 Z m -134.5849,93.35369 V 192.86602 l 106.5788,3.88973 v 548.4529 z"
     style="font-style:normal;font-variant:normal;font-weight:bold;font-stretch:normal;font-size:796.61810303px;font-family:'Aero Matics Stencil';-inkscape-font-specification:'Aero Matics Stencil Bold';fill:#2e3192;fill-opacity:1;stroke-width:1px"
     id="path4615" /><path
     d="m 3062.7138,738.59609 q -33.4517,6.61256 -64.9586,6.61256 -140.8084,0 -140.8084,-120.58185 v -38.89736 q 0,-120.58185 140.8084,-120.58185 l 64.9586,2.33385 v 85.57421 l -45.5099,-2.33385 q -53.6784,0 -53.6784,35.00764 v 31.11789 q 0,35.00763 54.0674,35.00763 7.0015,0.77795 15.17,0.77795 10.8912,0 29.9509,-1.94487 z m 27.6172,-296.78692 q 0,-35.00763 -55.6233,-35.00763 -59.9019,0 -134.9738,8.16845 l -3.8898,-96.46547 q 35.0077,-10.11332 87.9081,-10.11332 39.2863,0 90.2419,5.05666 122.9157,12.05818 122.9157,155.58947 v 280.06105 l -106.5788,-3.88973 z"
     style="font-style:normal;font-variant:normal;font-weight:bold;font-stretch:normal;font-size:796.61810303px;font-family:'Aero Matics Stencil';-inkscape-font-specification:'Aero Matics Stencil Bold';fill:#2e3192;fill-opacity:1;stroke-width:1px"
     id="path4617" /><path
     d="m 3449.7426,309.55812 q 140.8085,0 140.8085,120.58184 V 624.6268 q 0,120.58185 -140.8085,120.58185 -30.7289,0 -63.4027,-6.22358 v -88.686 q 18.2818,2.33384 29.1731,2.33384 7.3905,0 14.392,-0.77795 54.0673,0 54.0673,-35.00763 V 437.91944 q 0,-35.00764 -53.6783,-35.00764 l -43.1761,2.33385 0.3889,-93.35369 z m -92.5757,435.65053 -106.5788,3.88973 v -560.1221 l 106.5788,3.88974 z"
     style="font-style:normal;font-variant:normal;font-weight:bold;font-stretch:normal;font-size:796.61810303px;font-family:'Aero Matics Stencil';-inkscape-font-specification:'Aero Matics Stencil Bold';fill:#2e3192;fill-opacity:1;stroke-width:1px"
     id="path4619" /></g>

<g
   aria-label="Region Nürnberg e.V."
   style="font-style:normal;font-variant:normal;font-weight:bold;font-stretch:normal;font-size:227.11708069px;line-height:100%;font-family:'Liberation Sans';-inkscape-font-specification:'Liberation Sans Bold';letter-spacing:0px;word-spacing:0px;fill:#000000;fill-opacity:1;stroke:none;stroke-width:1px;stroke-linecap:butt;stroke-linejoin:miter;stroke-opacity:1"
   id="text941"><path
     d="m 1357.2629,855.32294 h 9.3289 q 14.3267,0 20.546,-5.66402 6.2193,-5.77508 6.2193,-16.88099 0,-11.55015 -6.6636,-16.43675 -6.6635,-4.8866 -20.657,-4.8866 h -8.7736 z m 0,27.9869 v 62.30417 h -34.4284 V 783.24556 h 44.4237 q 31.2076,0 46.0895,12.10544 14.882,11.99439 14.882,36.53846 0,8.32943 -2.2212,15.10404 -2.2212,6.77461 -5.9972,12.10545 -3.665,5.21978 -8.5516,9.2179 -4.7755,3.88707 -10.1064,6.55249 12.3276,19.76853 22.1008,35.31681 4.2203,6.66355 8.1073,12.99392 3.9982,6.33037 7.1078,11.32803 3.1097,4.99766 5.1087,7.99626 l 1.888,3.10965 h -38.2043 l -35.2057,-62.30417 z"
     style="font-style:normal;font-variant:normal;font-weight:bold;font-stretch:normal;font-size:227.44911194px;font-family:'Droid Sans';-inkscape-font-specification:'Droid Sans Bold';fill:#2e3192;fill-opacity:1;stroke-width:1px"
     id="path4622" /><path
     d="m 1513.8563,843.21749 q -8.9958,0 -14.993,6.33037 -5.8862,6.33037 -6.7746,19.87959 h 43.202 q -0.1111,-5.66402 -1.4438,-10.43956 -1.3327,-4.77555 -3.9981,-8.21838 -2.6655,-3.55389 -6.6636,-5.55296 -3.9981,-1.99906 -9.3289,-1.99906 z m 4.3313,104.61771 q -13.3271,0 -24.5441,-3.88707 -11.217,-3.88707 -19.3243,-11.66121 -8.1073,-7.8852 -12.6607,-19.76853 -4.4424,-11.99439 -4.4424,-28.09796 0,-16.32569 4.1092,-28.5422 4.1092,-12.2165 11.4391,-20.32382 7.4409,-8.21838 17.7694,-12.32756 10.4396,-4.10919 23.1003,-4.10919 12.3276,0 22.2119,3.77601 9.9953,3.66495 16.881,10.88379 6.9967,7.21885 10.6616,17.76946 3.776,10.43956 3.776,23.98878 v 16.43675 h -75.7423 q 0.2221,7.10779 2.2212,12.88286 2.1101,5.66402 5.7751,9.66215 3.776,3.88707 8.9958,5.99719 5.3308,2.11012 12.1054,2.11012 5.664,0 10.6617,-0.55529 5.1087,-0.66636 9.8842,-1.88801 4.7756,-1.22165 9.4401,-2.9986 4.6645,-1.888 9.5511,-4.3313 v 26.20995 q -4.4424,2.33225 -8.9958,3.99813 -4.4424,1.55483 -9.4401,2.66542 -4.9976,1.11059 -10.7727,1.55483 -5.7751,0.5553 -12.6607,0.5553 z"
     style="font-style:normal;font-variant:normal;font-weight:bold;font-stretch:normal;font-size:227.44911194px;font-family:'Droid Sans';-inkscape-font-specification:'Droid Sans Bold';fill:#2e3192;fill-opacity:1;stroke-width:1px"
     id="path4624" /><path
     d="m 1698.7697,821.67202 v 18.43581 l -18.1026,5.66402 q 2.2212,3.77601 3.1096,7.8852 0.8885,3.99813 0.8885,8.66261 0,9.44003 -2.9986,17.32523 -2.9986,7.77414 -8.8847,13.32709 -5.8861,5.55296 -14.7709,8.66262 -8.8847,2.99859 -20.657,2.99859 -2.5543,0 -5.5529,-0.22212 -2.9986,-0.33317 -4.4424,-0.66635 -2.2212,1.888 -3.5539,3.99813 -1.2216,1.99906 -1.2216,4.8866 0,2.33224 1.4437,3.77601 1.4438,1.33271 3.776,2.22118 2.3323,0.77742 5.4419,1.11059 3.1097,0.22212 6.4415,0.22212 h 19.3243 q 8.9958,0 16.1035,2.11013 7.1078,1.99906 11.9944,6.21931 4.9977,4.22025 7.6631,10.77273 2.6654,6.44143 2.6654,15.43722 0,10.55062 -4.2202,18.99112 -4.2203,8.55155 -12.6608,14.43768 -8.3294,5.9972 -20.768,9.10685 -12.4386,3.22071 -28.7643,3.22071 -12.6608,0 -22.1008,-2.44329 -9.44,-2.33224 -15.7704,-6.88567 -6.3304,-4.44236 -9.5511,-10.77273 -3.1096,-6.33038 -3.1096,-14.32663 0,-6.77461 2.3322,-11.77227 2.3322,-4.99766 6.2193,-8.55156 3.8871,-3.55389 8.7737,-5.77507 4.9976,-2.22118 10.2174,-3.44283 -2.3322,-0.99954 -4.6645,-2.77648 -2.2211,-1.77695 -4.1092,-4.10919 -1.7769,-2.33224 -2.9986,-5.10872 -1.1105,-2.88754 -1.1105,-5.99719 0,-3.5539 0.9995,-6.44143 1.1106,-2.88754 3.1096,-5.33084 1.9991,-2.55436 4.9977,-4.77555 2.9986,-2.22118 6.7746,-4.55342 -9.7732,-4.22025 -15.5483,-13.54921 -5.664,-9.32897 -5.664,-21.98971 0,-9.99533 3.1097,-17.88052 3.1096,-7.8852 9.1068,-13.3271 5.9972,-5.55296 14.8819,-8.4405 8.8848,-2.88753 20.4349,-2.88753 2.2212,0 4.9977,0.33317 2.7765,0.22212 5.4419,0.66636 2.7765,0.33318 5.1087,0.77741 2.3323,0.44424 3.665,0.77742 z m -88.8473,141.48934 q 0,2.77648 1.1106,5.33084 1.2217,2.66542 3.8871,4.66448 2.6654,1.99906 6.9967,3.10966 4.3313,1.22165 10.6617,1.22165 17.3252,0 26.0989,-4.88661 8.7737,-4.8866 8.7737,-13.10497 0,-6.99673 -5.4419,-9.32897 -5.4419,-2.33224 -16.881,-2.33224 h -15.6594 q -2.9986,0 -6.4414,0.66635 -3.4428,0.77742 -6.3304,2.55436 -2.8875,1.77695 -4.8866,4.66449 -1.888,2.99859 -1.888,7.44096 z m 12.2165,-101.06382 q 0,10.10638 3.776,15.65934 3.776,5.55296 11.4391,5.55296 7.9963,0 11.5502,-5.55296 3.5539,-5.55296 3.5539,-15.65934 0,-9.99532 -3.5539,-15.88145 -3.4429,-5.88614 -11.5502,-5.88614 -15.2151,0 -15.2151,21.76759 z"
     style="font-style:normal;font-variant:normal;font-weight:bold;font-stretch:normal;font-size:227.44911194px;font-family:'Droid Sans';-inkscape-font-specification:'Droid Sans Bold';fill:#2e3192;fill-opacity:1;stroke-width:1px"
     id="path4626" /><path
     d="m 1720.3152,789.35381 q 0,-4.77554 1.4438,-7.8852 1.4437,-3.22072 3.887,-5.10872 2.5544,-1.99907 5.8862,-2.77648 3.4428,-0.77741 7.2188,-0.77741 3.776,0 7.1078,0.77741 3.3318,0.77741 5.7751,2.77648 2.5543,1.888 3.9981,5.10872 1.5548,3.10966 1.5548,7.8852 0,4.66448 -1.5548,7.8852 -1.4438,3.22071 -3.9981,5.21978 -2.4433,1.888 -5.7751,2.77647 -3.3318,0.77742 -7.1078,0.77742 -3.776,0 -7.2188,-0.77742 -3.3318,-0.88847 -5.8862,-2.77647 -2.4433,-1.99907 -3.887,-5.21978 -1.4438,-3.22072 -1.4438,-7.8852 z m 35.3168,156.2602 h -33.873 V 821.4499 h 33.873 z"
     style="font-style:normal;font-variant:normal;font-weight:bold;font-stretch:normal;font-size:227.44911194px;font-family:'Droid Sans';-inkscape-font-specification:'Droid Sans Bold';fill:#2e3192;fill-opacity:1;stroke-width:1px"
     id="path4628" /><path
     d="m 1819.2689,883.30984 q 0,18.54687 5.2198,27.9869 5.2197,9.32897 16.992,9.32897 11.6612,0 16.881,-9.44003 5.2198,-9.44003 5.2198,-27.87584 0,-18.54688 -5.2198,-27.65373 -5.2198,-9.21791 -17.1031,-9.21791 -11.6612,0 -16.881,9.21791 -5.1087,9.10685 -5.1087,27.65373 z m 78.852,0 q 0,15.54828 -3.9982,27.54266 -3.887,11.99439 -11.328,20.21277 -7.3299,8.21837 -17.9916,12.54968 -10.5506,4.22025 -23.7666,4.22025 -12.3276,0 -22.6561,-4.22025 -10.3285,-4.33131 -17.8805,-12.54968 -7.441,-8.21838 -11.6612,-20.21277 -4.2203,-11.99438 -4.2203,-27.54266 0,-15.43722 3.8871,-27.43161 3.9981,-11.99439 11.328,-20.1017 7.441,-8.21838 17.9916,-12.43863 10.5506,-4.22024 23.8777,-4.22024 12.3276,0 22.6561,4.22024 10.3285,4.22025 17.7695,12.43863 7.552,8.10731 11.7722,20.1017 4.2203,11.99439 4.2203,27.43161 z"
     style="font-style:normal;font-variant:normal;font-weight:bold;font-stretch:normal;font-size:227.44911194px;font-family:'Droid Sans';-inkscape-font-specification:'Droid Sans Bold';fill:#2e3192;fill-opacity:1;stroke-width:1px"
     id="path4630" /><path
     d="m 2035.1678,945.61401 h -33.873 V 873.0924 q 0,-13.43816 -4.1092,-20.10171 -3.9981,-6.7746 -12.8828,-6.7746 -6.6636,0 -11.106,2.66542 -4.4423,2.66541 -7.1077,7.88519 -2.5544,5.21978 -3.665,12.88286 -1.1106,7.66308 -1.1106,17.54735 v 58.4171 h -33.873 V 821.4499 h 25.8768 l 4.5534,15.88146 h 1.888 q 2.6654,-4.77555 6.4414,-8.21838 3.8871,-3.44283 8.4405,-5.66402 4.5534,-2.22118 9.6622,-3.22071 5.1087,-1.11059 10.4395,-1.11059 9.1069,0 16.5478,2.66542 7.441,2.55436 12.7718,8.10731 5.3309,5.55296 8.2184,14.21557 2.8875,8.55156 2.8875,20.54594 z"
     style="font-style:normal;font-variant:normal;font-weight:bold;font-stretch:normal;font-size:227.44911194px;font-family:'Droid Sans';-inkscape-font-specification:'Droid Sans Bold';fill:#2e3192;fill-opacity:1;stroke-width:1px"
     id="path4632" /><path
     d="m 2268.9473,945.61401 h -43.6462 l -63.859,-122.8314 h -0.9995 q 0.6663,8.55155 1.1106,16.99205 0.4442,7.21884 0.6663,15.2151 0.3332,7.8852 0.3332,14.21557 v 76.40868 h -30.7634 V 783.24556 h 43.4241 l 63.748,121.60975 h 0.6663 q -0.3331,-8.44049 -0.7774,-16.65887 -0.111,-3.55389 -0.3332,-7.21884 -0.111,-3.77601 -0.2221,-7.44097 -0.111,-3.77601 -0.2221,-7.21884 0,-3.44283 0,-6.21931 v -76.85292 h 30.8744 z"
     style="font-style:normal;font-variant:normal;font-weight:bold;font-stretch:normal;font-size:227.44911194px;font-family:'Droid Sans';-inkscape-font-specification:'Droid Sans Bold';fill:#2e3192;fill-opacity:1;stroke-width:1px"
     id="path4634" /><path
     d="m 2388.447,945.61401 -4.5534,-15.88145 h -1.777 q -2.7765,4.77554 -6.6635,8.21837 -3.7761,3.33178 -8.3295,5.55296 -4.5534,2.22118 -9.6621,3.22072 -5.1087,1.11059 -10.4396,1.11059 -9.1068,0 -16.5478,-2.55436 -7.441,-2.66542 -12.7718,-8.21838 -5.3308,-5.55296 -8.2184,-14.10451 -2.8875,-8.55155 -2.8875,-20.54594 V 821.4499 h 33.873 v 72.52162 q 0,13.43815 3.9982,20.21276 4.1091,6.66355 12.9939,6.66355 6.6635,0 11.1059,-2.66542 4.4424,-2.66542 6.9967,-7.8852 2.6654,-5.21978 3.776,-12.88286 1.1106,-7.66308 1.1106,-17.54735 v -58.4171 h 33.8731 v 124.16411 z m -66.1913,-156.03808 q 0,-3.88707 1.2217,-6.66355 1.2216,-2.88754 3.2207,-4.66449 2.1101,-1.888 4.8866,-2.77647 2.8875,-0.88848 6.1083,-0.88848 3.2207,0 5.9971,0.88848 2.8876,0.88847 4.9977,2.77647 2.1101,1.77695 3.3318,4.66449 1.3327,2.77648 1.3327,6.66355 0,3.77601 -1.3327,6.55249 -1.2217,2.77647 -3.3318,4.66448 -2.1101,1.77695 -4.9977,2.66542 -2.7764,0.88847 -5.9971,0.88847 -3.2208,0 -6.1083,-0.88847 -2.7765,-0.88847 -4.8866,-2.66542 -1.9991,-1.88801 -3.2207,-4.66448 -1.2217,-2.77648 -1.2217,-6.55249 z m 44.7569,0 q 0,-3.88707 1.2216,-6.66355 1.2217,-2.88754 3.3318,-4.66449 2.1101,-1.888 4.9976,-2.77647 2.8876,-0.88848 6.2194,-0.88848 3.1096,0 5.8861,0.88848 2.8875,0.88847 4.9977,2.77647 2.2211,1.77695 3.4428,4.66449 1.3327,2.77648 1.3327,6.66355 0,3.77601 -1.3327,6.55249 -1.2217,2.77647 -3.4428,4.66448 -2.1102,1.77695 -4.9977,2.66542 -2.7765,0.88847 -5.8861,0.88847 -6.6636,0 -11.217,-3.66495 -4.5534,-3.66495 -4.5534,-11.10591 z"
     style="font-style:normal;font-variant:normal;font-weight:bold;font-stretch:normal;font-size:227.44911194px;font-family:'Droid Sans';-inkscape-font-specification:'Droid Sans Bold';fill:#2e3192;fill-opacity:1;stroke-width:1px"
     id="path4636" /><path
     d="m 2514.6101,819.11766 q 1.3327,0 2.8875,0.11106 1.6659,0 3.1097,0.22211 1.5548,0.11106 2.7765,0.33318 1.3327,0.11106 1.999,0.33318 v 31.76291 q -0.8885,-0.22212 -2.4433,-0.44423 -1.5548,-0.22212 -3.3318,-0.33318 -1.6658,-0.22212 -3.3317,-0.22212 -1.6659,-0.11106 -2.7765,-0.11106 -6.5525,0 -12.1055,1.66589 -5.4419,1.66589 -9.44,5.4419 -3.8871,3.66495 -6.1082,9.7732 -2.1102,5.99719 -2.1102,14.77086 v 63.19265 h -33.873 V 821.4499 h 25.6547 l 4.9976,18.65793 h 1.6659 q 2.6654,-4.77554 5.7751,-8.66261 3.1096,-3.88707 6.8857,-6.55249 3.887,-2.77648 8.6626,-4.22025 4.8866,-1.55482 11.1059,-1.55482 z"
     style="font-style:normal;font-variant:normal;font-weight:bold;font-stretch:normal;font-size:227.44911194px;font-family:'Droid Sans';-inkscape-font-specification:'Droid Sans Bold';fill:#2e3192;fill-opacity:1;stroke-width:1px"
     id="path4638" /><path
     d="m 2656.2106,945.61401 h -33.8731 V 873.0924 q 0,-13.43816 -4.1092,-20.10171 -3.9981,-6.7746 -12.8828,-6.7746 -6.6636,0 -11.1059,2.66542 -4.4424,2.66541 -7.1078,7.88519 -2.5544,5.21978 -3.665,12.88286 -1.1106,7.66308 -1.1106,17.54735 v 58.4171 h -33.873 V 821.4499 h 25.8768 l 4.5534,15.88146 h 1.888 q 2.6654,-4.77555 6.4414,-8.21838 3.8871,-3.44283 8.4405,-5.66402 4.5535,-2.22118 9.6622,-3.22071 5.1087,-1.11059 10.4395,-1.11059 9.1069,0 16.5479,2.66542 7.4409,2.55436 12.7718,8.10731 5.3308,5.55296 8.2183,14.21557 2.8876,8.55156 2.8876,20.54594 z"
     style="font-style:normal;font-variant:normal;font-weight:bold;font-stretch:normal;font-size:227.44911194px;font-family:'Droid Sans';-inkscape-font-specification:'Droid Sans Bold';fill:#2e3192;fill-opacity:1;stroke-width:1px"
     id="path4640" /><path
     d="m 2757.2743,819.11766 q 9.5511,0 17.4363,4.10919 7.8852,4.10918 13.5492,12.2165 5.664,8.10732 8.7737,20.1017 3.2207,11.99439 3.2207,27.76479 0,15.99251 -3.2207,28.09796 -3.1097,11.99439 -8.8848,20.1017 -5.775,8.10732 -13.8823,12.21651 -8.1074,4.10919 -17.8806,4.10919 -6.2193,0 -11.1059,-1.33271 -4.7755,-1.33271 -8.5515,-3.5539 -3.776,-2.22118 -6.6636,-4.99766 -2.7765,-2.88753 -5.1087,-5.99719 h -2.3322 l -5.6641,13.66027 h -25.8767 V 772.806 h 33.873 v 40.2034 q 0,3.66496 -0.2221,7.99626 -0.2221,4.22025 -0.4443,7.8852 -0.3331,4.33131 -0.6663,8.66261 h 1.3327 q 2.3322,-3.88707 5.3308,-7.21884 2.9986,-3.33177 6.8857,-5.77508 3.9981,-2.55436 8.9958,-3.99812 4.9977,-1.44377 11.1059,-1.44377 z m -11.4391,27.09843 q -5.664,0 -9.6621,2.11012 -3.8871,1.99906 -6.3304,6.10825 -2.4433,4.10919 -3.5539,10.43956 -1.1106,6.21931 -1.3327,14.54875 v 3.66495 q 0,8.99579 0.9995,15.99252 1.1106,6.99672 3.5539,11.77226 2.4433,4.66449 6.4415,7.10779 4.1091,2.4433 10.1063,2.4433 10.1064,0 14.7709,-9.55109 4.7755,-9.66214 4.7755,-27.9869 0,-18.32476 -4.7755,-27.43161 -4.6645,-9.2179 -14.993,-9.2179 z"
     style="font-style:normal;font-variant:normal;font-weight:bold;font-stretch:normal;font-size:227.44911194px;font-family:'Droid Sans';-inkscape-font-specification:'Droid Sans Bold';fill:#2e3192;fill-opacity:1;stroke-width:1px"
     id="path4642" /><path
     d="m 2879.4394,843.21749 q -8.9958,0 -14.993,6.33037 -5.8861,6.33037 -6.7746,19.87959 h 43.202 q -0.1111,-5.66402 -1.4438,-10.43956 -1.3327,-4.77555 -3.9981,-8.21838 -2.6654,-3.55389 -6.6635,-5.55296 -3.9982,-1.99906 -9.329,-1.99906 z m 4.3313,104.61771 q -13.3271,0 -24.5441,-3.88707 -11.217,-3.88707 -19.3243,-11.66121 -8.1073,-7.8852 -12.6607,-19.76853 -4.4424,-11.99439 -4.4424,-28.09796 0,-16.32569 4.1092,-28.5422 4.1092,-12.2165 11.4391,-20.32382 7.441,-8.21838 17.7695,-12.32756 10.4395,-4.10919 23.1003,-4.10919 12.3275,0 22.2118,3.77601 9.9953,3.66495 16.881,10.88379 6.9967,7.21885 10.6617,17.76946 3.776,10.43956 3.776,23.98878 v 16.43675 h -75.7424 q 0.2222,7.10779 2.2212,12.88286 2.1101,5.66402 5.7751,9.66215 3.776,3.88707 8.9958,5.99719 5.3308,2.11012 12.1054,2.11012 5.664,0 10.6617,-0.55529 5.1087,-0.66636 9.8843,-1.88801 4.7755,-1.22165 9.44,-2.9986 4.6645,-1.888 9.5511,-4.3313 v 26.20995 q -4.4424,2.33225 -8.9958,3.99813 -4.4424,1.55483 -9.44,2.66542 -4.9977,1.11059 -10.7728,1.55483 -5.775,0.5553 -12.6607,0.5553 z"
     style="font-style:normal;font-variant:normal;font-weight:bold;font-stretch:normal;font-size:227.44911194px;font-family:'Droid Sans';-inkscape-font-specification:'Droid Sans Bold';fill:#2e3192;fill-opacity:1;stroke-width:1px"
     id="path4644" /><path
     d="m 3026.3706,819.11766 q 1.3327,0 2.8875,0.11106 1.6659,0 3.1097,0.22211 1.5548,0.11106 2.7764,0.33318 1.3328,0.11106 1.9991,0.33318 v 31.76291 q -0.8885,-0.22212 -2.4433,-0.44423 -1.5548,-0.22212 -3.3318,-0.33318 -1.6658,-0.22212 -3.3317,-0.22212 -1.6659,-0.11106 -2.7765,-0.11106 -6.5525,0 -12.1055,1.66589 -5.4419,1.66589 -9.44,5.4419 -3.8871,3.66495 -6.1082,9.7732 -2.1102,5.99719 -2.1102,14.77086 v 63.19265 h -33.873 V 821.4499 h 25.6547 l 4.9976,18.65793 h 1.6659 q 2.6654,-4.77554 5.7751,-8.66261 3.1096,-3.88707 6.8856,-6.55249 3.8871,-2.77648 8.6627,-4.22025 4.8866,-1.55482 11.1059,-1.55482 z"
     style="font-style:normal;font-variant:normal;font-weight:bold;font-stretch:normal;font-size:227.44911194px;font-family:'Droid Sans';-inkscape-font-specification:'Droid Sans Bold';fill:#2e3192;fill-opacity:1;stroke-width:1px"
     id="path4646" /><path
     d="m 3160.7522,821.67202 v 18.43581 l -18.1026,5.66402 q 2.2212,3.77601 3.1096,7.8852 0.8885,3.99813 0.8885,8.66261 0,9.44003 -2.9986,17.32523 -2.9986,7.77414 -8.8847,13.32709 -5.8862,5.55296 -14.7709,8.66262 -8.8847,2.99859 -20.657,2.99859 -2.5543,0 -5.5529,-0.22212 -2.9986,-0.33317 -4.4424,-0.66635 -2.2212,1.888 -3.5539,3.99813 -1.2217,1.99906 -1.2217,4.8866 0,2.33224 1.4438,3.77601 1.4438,1.33271 3.776,2.22118 2.3323,0.77742 5.4419,1.11059 3.1097,0.22212 6.4415,0.22212 h 19.3242 q 8.9958,0 16.1036,2.11013 7.1078,1.99906 11.9944,6.21931 4.9977,4.22025 7.6631,10.77273 2.6654,6.44143 2.6654,15.43722 0,10.55062 -4.2202,18.99112 -4.2203,8.55155 -12.6608,14.43768 -8.3294,5.9972 -20.768,9.10685 -12.4387,3.22071 -28.7644,3.22071 -12.6607,0 -22.1007,-2.44329 -9.4401,-2.33224 -15.7704,-6.88567 -6.3304,-4.44236 -9.5511,-10.77273 -3.1097,-6.33038 -3.1097,-14.32663 0,-6.77461 2.3323,-11.77227 2.3322,-4.99766 6.2193,-8.55156 3.8871,-3.55389 8.7737,-5.77507 4.9976,-2.22118 10.2174,-3.44283 -2.3322,-0.99954 -4.6645,-2.77648 -2.2212,-1.77695 -4.1092,-4.10919 -1.7769,-2.33224 -2.9986,-5.10872 -1.1106,-2.88754 -1.1106,-5.99719 0,-3.5539 0.9996,-6.44143 1.1106,-2.88754 3.1096,-5.33084 1.9991,-2.55436 4.9977,-4.77555 2.9986,-2.22118 6.7746,-4.55342 -9.7732,-4.22025 -15.5483,-13.54921 -5.664,-9.32897 -5.664,-21.98971 0,-9.99533 3.1097,-17.88052 3.1096,-7.8852 9.1068,-13.3271 5.9972,-5.55296 14.8819,-8.4405 8.8848,-2.88753 20.4349,-2.88753 2.2212,0 4.9977,0.33317 2.7765,0.22212 5.4419,0.66636 2.7764,0.33318 5.1087,0.77741 2.3322,0.44424 3.6649,0.77742 z m -88.8473,141.48934 q 0,2.77648 1.1106,5.33084 1.2216,2.66542 3.8871,4.66448 2.6654,1.99906 6.9967,3.10966 4.3313,1.22165 10.6617,1.22165 17.3252,0 26.0989,-4.88661 8.7736,-4.8866 8.7736,-13.10497 0,-6.99673 -5.4419,-9.32897 -5.4419,-2.33224 -16.8809,-2.33224 h -15.6594 q -2.9986,0 -6.4414,0.66635 -3.4428,0.77742 -6.3304,2.55436 -2.8875,1.77695 -4.8866,4.66449 -1.888,2.99859 -1.888,7.44096 z m 12.2165,-101.06382 q 0,10.10638 3.776,15.65934 3.776,5.55296 11.4391,5.55296 7.9963,0 11.5502,-5.55296 3.5539,-5.55296 3.5539,-15.65934 0,-9.99532 -3.5539,-15.88145 -3.4429,-5.88614 -11.5502,-5.88614 -15.2151,0 -15.2151,21.76759 z"
     style="font-style:normal;font-variant:normal;font-weight:bold;font-stretch:normal;font-size:227.44911194px;font-family:'Droid Sans';-inkscape-font-specification:'Droid Sans Bold';fill:#2e3192;fill-opacity:1;stroke-width:1px"
     id="path4648" /><path
     d="m 3293.0236,843.21749 q -8.9958,0 -14.993,6.33037 -5.8861,6.33037 -6.7746,19.87959 h 43.202 q -0.111,-5.66402 -1.4437,-10.43956 -1.3328,-4.77555 -3.9982,-8.21838 -2.6654,-3.55389 -6.6635,-5.55296 -3.9981,-1.99906 -9.329,-1.99906 z m 4.3313,104.61771 q -13.3271,0 -24.5441,-3.88707 -11.2169,-3.88707 -19.3242,-11.66121 -8.1074,-7.8852 -12.6608,-19.76853 -4.4423,-11.99439 -4.4423,-28.09796 0,-16.32569 4.1091,-28.5422 4.1092,-12.2165 11.4391,-20.32382 7.441,-8.21838 17.7695,-12.32756 10.4396,-4.10919 23.1003,-4.10919 12.3276,0 22.2118,3.77601 9.9953,3.66495 16.881,10.88379 6.9967,7.21885 10.6617,17.76946 3.776,10.43956 3.776,23.98878 v 16.43675 h -75.7423 q 0.2221,7.10779 2.2211,12.88286 2.1102,5.66402 5.7751,9.66215 3.776,3.88707 8.9958,5.99719 5.3309,2.11012 12.1055,2.11012 5.664,0 10.6616,-0.55529 5.1088,-0.66636 9.8843,-1.88801 4.7755,-1.22165 9.44,-2.9986 4.6645,-1.888 9.5511,-4.3313 v 26.20995 q -4.4424,2.33225 -8.9958,3.99813 -4.4423,1.55483 -9.44,2.66542 -4.9977,1.11059 -10.7727,1.55483 -5.7751,0.5553 -12.6608,0.5553 z"
     style="font-style:normal;font-variant:normal;font-weight:bold;font-stretch:normal;font-size:227.44911194px;font-family:'Droid Sans';-inkscape-font-specification:'Droid Sans Bold';fill:#2e3192;fill-opacity:1;stroke-width:1px"
     id="path4650" /><path
     d="m 3370.4319,929.73256 q 0,-5.21978 1.4438,-8.77367 1.5548,-3.66496 4.2202,-5.88614 2.6654,-2.22118 6.2193,-3.22071 3.5539,-0.99954 7.6631,-0.99954 3.8871,0 7.3299,0.99954 3.5539,0.99953 6.2193,3.22071 2.6654,2.22118 4.2203,5.88614 1.5548,3.55389 1.5548,8.77367 0,4.99766 -1.5548,8.55155 -1.5549,3.55389 -4.2203,5.88613 -2.6654,2.33225 -6.2193,3.33178 -3.4428,1.11059 -7.3299,1.11059 -4.1092,0 -7.6631,-1.11059 -3.5539,-0.99953 -6.2193,-3.33178 -2.6654,-2.33224 -4.2202,-5.88613 -1.4438,-3.55389 -1.4438,-8.55155 z"
     style="font-style:normal;font-variant:normal;font-weight:bold;font-stretch:normal;font-size:227.44911194px;font-family:'Droid Sans';-inkscape-font-specification:'Droid Sans Bold';fill:#2e3192;fill-opacity:1;stroke-width:1px"
     id="path4652" /><path
     d="m 3515.1418,783.24556 h 34.7615 l -50.643,162.36845 h -37.538 l -50.5319,-162.36845 h 34.7615 l 27.5427,97.73204 q 0.5553,1.888 1.4438,6.33037 0.9995,4.44236 1.999,9.7732 1.1106,5.33084 2.1102,10.66168 0.9995,5.33084 1.5548,8.99579 0.5553,-3.66495 1.5548,-8.99579 0.9996,-5.33084 2.1101,-10.55062 1.1106,-5.33084 2.1102,-9.7732 1.1106,-4.44237 1.6659,-6.44143 z"
     style="font-style:normal;font-variant:normal;font-weight:bold;font-stretch:normal;font-size:227.44911194px;font-family:'Droid Sans';-inkscape-font-specification:'Droid Sans Bold';fill:#2e3192;fill-opacity:1;stroke-width:1px"
     id="path4654" /><path
     d="m 3551.6804,929.73256 q 0,-5.21978 1.4438,-8.77367 1.5548,-3.66496 4.2203,-5.88614 2.6654,-2.22118 6.2193,-3.22071 3.5539,-0.99954 7.6631,-0.99954 3.887,0 7.3299,0.99954 3.5538,0.99953 6.2193,3.22071 2.6654,2.22118 4.2202,5.88614 1.5548,3.55389 1.5548,8.77367 0,4.99766 -1.5548,8.55155 -1.5548,3.55389 -4.2202,5.88613 -2.6655,2.33225 -6.2193,3.33178 -3.4429,1.11059 -7.3299,1.11059 -4.1092,0 -7.6631,-1.11059 -3.5539,-0.99953 -6.2193,-3.33178 -2.6655,-2.33224 -4.2203,-5.88613 -1.4438,-3.55389 -1.4438,-8.55155 z"
     style="font-style:normal;font-variant:normal;font-weight:bold;font-stretch:normal;font-size:227.44911194px;font-family:'Droid Sans';-inkscape-font-specification:'Droid Sans Bold';fill:#2e3192;fill-opacity:1;stroke-width:1px"
     id="path4656" /></g>

<g
   style="font-style:normal;font-variant:normal;font-weight:bold;font-stretch:normal;font-size:32px;line-height:100%;font-family:'Liberation Sans';-inkscape-font-specification:'Liberation Sans Bold';letter-spacing:0px;word-spacing:0px;fill:#000000;fill-opacity:1;stroke:none;stroke-width:1px;stroke-linecap:butt;stroke-linejoin:miter;stroke-opacity:1"
   id="flowRoot1064" /></g></svg>
